<svg width="272" height="220" viewBox="0 0 272 220" fill="none" xmlns="http://www.w3.org/2000/svg">
<path d="M4.39152 166.21C4.10736 162.129 3.71692 157.882 3.32235 153.589C2.27665 142.214 1.20189 130.522 1.99913 120.764C2.54761 114.051 3.979 108.341 6.85708 104.316C9.71093 100.325 14.024 97.9399 20.4889 97.9311C33.4703 97.9134 43.5814 107.295 53.3152 116.961C53.8285 117.471 54.3407 117.981 54.8521 118.491C59.164 122.787 63.4224 127.031 67.8166 130.339C72.7365 134.043 77.8829 136.619 83.5444 136.781C89.3527 136.948 93.509 132.698 97.0249 126.918C98.7919 124.014 100.424 120.679 102.04 117.234C102.455 116.348 102.87 115.454 103.285 114.559C104.489 111.966 105.701 109.353 106.977 106.835C110.421 100.042 114.264 94.0834 119.451 91.2205C124.57 88.3945 131.135 88.5224 140.214 94.2518C158.825 105.996 176.027 98.5686 192.166 89.2709C194.545 87.9001 196.899 86.49 199.233 85.0924C204.845 81.7308 210.338 78.441 215.774 75.9405C223.458 72.4064 230.923 70.5041 238.286 72.2168C241.972 73.0741 244.551 74.5659 246.291 76.525C248.031 78.484 248.969 80.9524 249.298 83.8296C249.958 89.6143 248.145 96.9421 245.571 104.765C244.504 108.006 243.314 111.316 242.124 114.621C241.882 115.294 241.64 115.967 241.399 116.64C239.975 120.608 238.592 124.547 237.479 128.308C236.365 132.068 235.516 135.666 235.166 138.953C234.816 142.237 234.961 145.243 235.863 147.802C240.217 160.145 250.067 163.707 258.199 166.475C258.362 166.53 258.523 166.585 258.683 166.639C262.584 167.965 265.983 169.12 268.265 170.975C269.436 171.927 270.296 173.052 270.769 174.471C271.244 175.894 271.344 177.652 270.927 179.885C269.275 188.74 260.788 195.338 243.631 199.124C226.504 202.902 200.937 203.827 165.533 201.501C151.131 200.555 134.222 203.885 116.916 207.875C113.716 208.613 110.502 209.373 107.287 210.134C93.0847 213.495 78.8574 216.861 65.677 218.31C49.5086 220.088 35.0389 218.964 24.2006 211.498C13.3846 204.048 6.06134 190.193 4.39152 166.21Z" fill="#F8F9FD" stroke="#E4E8ED"/>
<rect x="82" y="91" width="98" height="87" rx="2" fill="#587CA5"/>
<circle cx="75" cy="48" r="8" stroke="#F8F9FD" stroke-width="2"/>
<circle cx="32.5" cy="32.5" r="6.5" stroke="#EDF2FA" stroke-width="2"/>
<rect x="56" y="50" width="150" height="118" rx="3" fill="#EDF2FA"/>
<rect x="72.6484" y="66.627" width="12.0651" height="4.36758" rx="1" fill="#B8C7DA"/>
<rect x="173.557" y="66.627" width="15.3556" height="4.36758" rx="1" fill="#E47E06"/>
<rect x="93.4883" y="66.627" width="34.0017" height="4.36758" rx="1" fill="#B8C7DA"/>
<rect x="131.877" y="66.627" width="20.8398" height="4.36758" rx="1" fill="#B8C7DA"/>
<rect x="73" y="81" width="116" height="72" rx="2" fill="#DAE2EF"/>
<rect opacity="0.5" x="73" y="93" width="116" height="12" fill="#B8C7DA"/>
<rect opacity="0.5" x="73" y="117" width="116" height="12" fill="#B8C7DA"/>
<path opacity="0.5" d="M73 141H189V153H75C73.8954 153 73 152.105 73 151V141Z" fill="#B8C7DA"/>
<rect x="89" y="81" width="1" height="72" rx="0.5" fill="#EDF2FA"/>
<rect x="114" y="81" width="1" height="72" rx="0.5" fill="#EDF2FA"/>
<rect x="159" y="81" width="1" height="72" rx="0.5" fill="#EDF2FA"/>
<path d="M175 81H188C188.552 81 189 81.4477 189 82V152C189 152.552 188.552 153 188 153H175V81Z" fill="#BFC9D8"/>
<circle cx="224" cy="35" r="5" stroke="#EDF2FA" stroke-width="2"/>
<circle cx="142" cy="14" r="10" stroke="#EDF2FA" stroke-width="2"/>
<path d="M170.58 40.7522L181.778 25.0005" stroke="#E7EFFB" stroke-width="2" stroke-linecap="round"/>
<path d="M112.498 43.6645L105.603 31.9992" stroke="#EDF2FA" stroke-width="2" stroke-linecap="round"/>
<path d="M71.4504 22.2985L60.5264 6.00076" stroke="#E7EFFB" stroke-width="2" stroke-linecap="round"/>
<path d="M33.2321 67.3674L18 58.7183" stroke="#E7EFFB" stroke-width="2" stroke-linecap="round"/>
</svg>
